<svg width="24" height="24" viewBox="0 0 24 24" fill="none" xmlns="http://www.w3.org/2000/svg">
<path d="M7.09993 0.333233H16.8996C20.6328 0.333233 23.666 3.36646 23.666 7.09966V16.8993C23.666 18.6939 22.9531 20.415 21.6842 21.6839C20.4152 22.9529 18.6942 23.6658 16.8996 23.6658H7.09993C3.36672 23.6658 0.333496 20.6325 0.333496 16.8993V7.09966C0.333496 5.30509 1.04639 3.58403 2.31534 2.31507C3.58429 1.04612 5.30536 0.333233 7.09993 0.333233ZM6.8666 2.66648C5.75273 2.66648 4.68448 3.10897 3.89686 3.89659C3.10923 4.68422 2.66675 5.75247 2.66675 6.86634V17.1326C2.66675 19.4542 4.54502 21.3325 6.8666 21.3325H17.1329C18.2468 21.3325 19.315 20.89 20.1027 20.1024C20.8903 19.3148 21.3328 18.2465 21.3328 17.1326V6.86634C21.3328 4.54475 19.4545 2.66648 17.1329 2.66648H6.8666ZM18.1245 4.41642C18.5113 4.41642 18.8822 4.57006 19.1557 4.84354C19.4292 5.11703 19.5828 5.48795 19.5828 5.87471C19.5828 6.26147 19.4292 6.63239 19.1557 6.90587C18.8822 7.17935 18.5113 7.33299 18.1245 7.33299C17.7378 7.33299 17.3669 7.17935 17.0934 6.90587C16.8199 6.63239 16.6663 6.26147 16.6663 5.87471C16.6663 5.48795 16.8199 5.11703 17.0934 4.84354C17.3669 4.57006 17.7378 4.41642 18.1245 4.41642ZM11.9998 6.16636C13.5468 6.16636 15.0305 6.78092 16.1244 7.87485C17.2183 8.96877 17.8329 10.4524 17.8329 11.9995C17.8329 13.5465 17.2183 15.0302 16.1244 16.1241C15.0305 17.2181 13.5468 17.8326 11.9998 17.8326C10.4527 17.8326 8.96903 17.2181 7.87511 16.1241C6.78119 15.0302 6.16663 13.5465 6.16663 11.9995C6.16663 10.4524 6.78119 8.96877 7.87511 7.87485C8.96903 6.78092 10.4527 6.16636 11.9998 6.16636ZM11.9998 8.49961C11.0715 8.49961 10.1813 8.86835 9.52497 9.5247C8.86861 10.1811 8.49988 11.0713 8.49988 11.9995C8.49988 12.9277 8.86861 13.8179 9.52497 14.4743C10.1813 15.1306 11.0715 15.4994 11.9998 15.4994C12.928 15.4994 13.8182 15.1306 14.4745 14.4743C15.1309 13.8179 15.4996 12.9277 15.4996 11.9995C15.4996 11.0713 15.1309 10.1811 14.4745 9.5247C13.8182 8.86835 12.928 8.49961 11.9998 8.49961Z" fill="#151515"/>
</svg>
